<svg xmlns="http://www.w3.org/2000/svg" viewBox="0 0 64 89"><g fill="none" fill-rule="evenodd"><path fill="#005F86" fill-rule="nonzero" d="M55.056 83.776v-.023a4.2 4.2 0 0 1 4.186-4.216 4.2 4.2 0 0 1 4.209 4.193v.023a4.2 4.2 0 0 1-4.186 4.216 4.2 4.2 0 0 1-4.209-4.193Zm8.012-.023v-.023a3.822 3.822 0 0 0-1.917-3.303 3.809 3.809 0 0 0-3.815.011 3.822 3.822 0 0 0-1.897 3.315v.023a3.822 3.822 0 0 0 1.917 3.304 3.809 3.809 0 0 0 3.815-.012 3.822 3.822 0 0 0 1.897-3.315Zm-5.46-2.276h1.932a1.79 1.79 0 0 1 1.275.453c.227.218.353.52.348.836v.023c0 .697-.464 1.115-1.113 1.266l1.333 1.73h-.796l-1.24-1.625h-1.102v1.626h-.638v-4.31Zm1.866 2.114c.603 0 1.02-.28 1.02-.775v-.023c0-.453-.37-.743-.985-.743h-1.264v1.533l1.229.008Z"/><path fill="#FFF" fill-rule="nonzero" d="M48.53 87.673H6.34A5.029 5.029 0 0 1 1.36 82.6V6.436a5.029 5.029 0 0 1 4.978-5.071H48.53a5.03 5.03 0 0 1 4.978 5.071v76.165a5.029 5.029 0 0 1-4.978 5.074"/><path stroke="#005F84" d="M48.397 87.718H6.254c-2.769-.025-4.994-2.298-4.972-5.079V6.361C1.26 3.58 3.485 1.307 6.254 1.28h42.143c2.768.026 4.993 2.299 4.972 5.08v76.278c.021 2.781-2.204 5.054-4.972 5.08Z"/><path fill="#015A75" fill-rule="nonzero" d="M48.482 1a5.217 5.217 0 0 1 5.168 5.255v76.209a5.217 5.217 0 0 1-5.168 5.254H6.169A5.217 5.217 0 0 1 1 82.464V6.254A5.217 5.217 0 0 1 6.17 1h42.313m0 .358H6.169a4.861 4.861 0 0 0-4.816 4.897v76.209a4.861 4.861 0 0 0 4.816 4.896h42.313a4.861 4.861 0 0 0 4.816-4.896V6.254a4.861 4.861 0 0 0-4.816-4.896Z"/><path stroke="#005F86" d="M48.482 1a5.217 5.217 0 0 1 5.168 5.255v76.209a5.217 5.217 0 0 1-5.168 5.254H6.169A5.217 5.217 0 0 1 1 82.464V6.254A5.217 5.217 0 0 1 6.17 1h42.313m0 .358H6.169a4.861 4.861 0 0 0-4.816 4.897v76.209a4.861 4.861 0 0 0 4.816 4.896h42.313a4.861 4.861 0 0 0 4.816-4.896V6.254a4.861 4.861 0 0 0-4.816-4.896Z"/><g fill-rule="nonzero"><path fill="#005F84" d="M52.177 70.794v11.989a3.678 3.678 0 0 1-3.637 3.714H6.346a3.666 3.666 0 0 1-2.587-1.104 3.69 3.69 0 0 1-1.05-2.616V70.794h49.47"/><path fill="#005F86" d="M53.773 70.113v13.352c0 2.282-1.717 4.135-3.835 4.135H5.46c-2.126 0-3.836-1.853-3.836-4.135V70.113h52.148"/><path fill="#FFF" d="M7.884 73.669h.899l1.9 4.558h-1.02l-.405-1.014H7.383l-.41 1.014h-.989l1.9-4.558m1.022 2.664-.58-1.468-.58 1.468h1.16Zm1.981-.355v-.012a2.284 2.284 0 0 1 .66-1.668 2.269 2.269 0 0 1 1.659-.672 2.263 2.263 0 0 1 1.74.698l-.629.735a1.623 1.623 0 0 0-1.134-.512c-.748 0-1.287.634-1.287 1.41v.013c0 .776.525 1.421 1.287 1.421.506 0 .817-.207 1.16-.529l.62.64a2.326 2.326 0 0 1-2.572.663 2.338 2.338 0 0 1-1.521-2.183m4.564-.004v-.012a2.386 2.386 0 0 1 1.489-2.165 2.373 2.373 0 0 1 2.57.523l-.62.735a1.623 1.623 0 0 0-1.134-.512c-.747 0-1.285.634-1.285 1.41v.013c0 .776.526 1.421 1.285 1.421.507 0 .818-.207 1.16-.529l.62.64a2.326 2.326 0 0 1-2.571.663 2.338 2.338 0 0 1-1.522-2.183m4.882-2.28h2.027c.475-.03.942.136 1.293.46.26.278.4.65.386 1.033v.013a1.404 1.404 0 0 1-.95 1.404l1.081 1.617h-1.14l-.958-1.448h-.773v1.448h-.966v-4.527M22.27 75.9c.475 0 .748-.257.748-.64v-.007c0-.427-.292-.646-.773-.646h-.966v1.3l.991-.007Zm2.612-2.198h3.345v.886h-2.375v.917h2.091v.886h-2.091v.952h2.408v.884h-3.378v-4.525m4.243 0h1.73c1.393 0 2.355.97 2.355 2.25v.014c0 1.274-.966 2.263-2.355 2.263h-1.73v-4.527m1.73 3.627c.363.02.716-.118.972-.377a1.28 1.28 0 0 0 .365-.98v-.011a1.292 1.292 0 0 0-.37-.976 1.283 1.283 0 0 0-.967-.382H30.1v2.728l.754-.002Zm3.268-3.627h1v4.525h-1zm3.115.919h-1.349v-.919h3.673v.919h-1.348v3.606h-.976v-3.606m3.07-.919h3.345v.886h-2.375v.917h2.091v.886h-2.091v.952h2.408v.884h-3.378v-4.525m4.244 0h1.73c1.393 0 2.355.97 2.355 2.25v.014c0 1.274-.966 2.263-2.356 2.263h-1.73v-4.527m1.73 3.627c.363.02.717-.118.972-.377a1.28 1.28 0 0 0 .366-.98v-.011a1.292 1.292 0 0 0-.37-.976 1.283 1.283 0 0 0-.968-.382h-.753v2.728l.753-.002ZM11.52 79.807h2.06c.424-.028.842.117 1.16.401.203.205.313.486.303.776v.013c.01.409-.216.786-.58.97.512.193.829.504.829 1.112v.014c0 .828-.659 1.24-1.66 1.24H11.52v-4.526m1.85 1.83c.43 0 .703-.142.703-.479v-.013c0-.297-.228-.466-.64-.466h-.966v.956l.902.002Zm.258 1.822c.431 0 .69-.155.69-.49v-.012c0-.304-.222-.49-.723-.49H12.47v.994l1.157-.002Zm2.394-1.066v-2.586h.967v2.56c0 .738.361 1.12.956 1.12s.957-.369.957-1.086v-2.594h.966v2.553c0 1.37-.754 2.043-1.944 2.043s-1.919-.678-1.919-2.01m4.572 1.28.58-.706c.36.34.83.536 1.324.55.398 0 .64-.162.64-.426v-.014c0-.252-.153-.387-.893-.581-.893-.233-1.47-.485-1.47-1.382V81.1c0-.822.646-1.357 1.547-1.357.6-.008 1.183.199 1.646.581l-.504.745a2.056 2.056 0 0 0-1.16-.446c-.373 0-.57.175-.57.388v.013c0 .297.194.388.957.596.898.238 1.407.568 1.407 1.357v.013c0 .9-.673 1.404-1.63 1.404a2.79 2.79 0 0 1-1.882-.723m4.407-3.864h1v4.525h-1zm2.084 0h.9l2.077 2.786v-2.786H31v4.525h-.829l-2.147-2.877v2.877h-.964v-4.525m5.003 0h3.345v.886h-2.375v.917h2.089v.886h-2.089v.95h2.406v.886h-3.376v-4.525m3.94 3.866.58-.706c.359.34.83.536 1.323.55.398 0 .64-.162.64-.426v-.014c0-.252-.153-.387-.893-.581-.893-.233-1.469-.485-1.469-1.382V81.1c0-.822.646-1.357 1.546-1.357.6-.008 1.184.199 1.647.581l-.506.745a2.054 2.054 0 0 0-1.16-.446c-.375 0-.58.175-.58.388v.013c0 .297.194.388.957.596.898.238 1.407.568 1.407 1.357v.013c0 .9-.67 1.404-1.627 1.404a2.79 2.79 0 0 1-1.883-.723m4.006.002.58-.706c.36.34.83.536 1.324.55.4 0 .64-.162.64-.426v-.014c0-.252-.153-.387-.893-.581-.893-.233-1.469-.485-1.469-1.382V81.1c0-.822.645-1.357 1.546-1.357a2.53 2.53 0 0 1 1.646.581l-.504.745a2.056 2.056 0 0 0-1.16-.446c-.372 0-.58.175-.58.388v.013c0 .297.194.388.967.596.899.238 1.407.568 1.407 1.357v.013c0 .9-.67 1.404-1.627 1.404a2.79 2.79 0 0 1-1.882-.723"/><path fill="#005F86" d="M38.478 44.411H16.437l-.8 2.654h5.873l1.12 3.662h9.657l1.117-3.662h5.874l-.8-2.654M20.033 29.5a5.273 5.273 0 0 0 1.16 7.33l5.273 3.86c.582.428.712 1.247.29 1.834l.796.582 2.787-3.878a5.246 5.246 0 0 0 .927-3.906 5.223 5.223 0 0 0-2.087-3.424l-5.275-3.86a1.307 1.307 0 0 1-.54-1.068c-.002-.278.085-.55.248-.775l-.792-.582-2.787 3.887m3.173-15.51a7.593 7.593 0 0 0-1.44 4.46c0 .405.032.81.095 1.211a7.564 7.564 0 0 0 3.028 4.965l6.63 4.847a4.058 4.058 0 0 1 1.674 3.307 4.08 4.08 0 0 1-.773 2.389l.636.463 5.223-7.295c2.45-3.404 1.699-8.154-1.681-10.63l-8-5.86a2.357 2.357 0 0 1-.52-3.285l-.636-.463-4.236 5.892M9.68 52.94h6.03c1.485 0 2.657.413 3.4 1.163.592.586.915 1.393.891 2.227v.037c0 1.48-.773 2.303-1.71 2.827 1.506.581 2.435 1.46 2.435 3.22v.043c0 2.394-1.932 3.594-4.868 3.594H9.68v-13.11m5.411 5.298c1.264 0 2.062-.41 2.062-1.386v-.037c0-.86-.669-1.357-1.876-1.357h-2.82v2.77l2.634.01Zm.773 5.277c1.264 0 2.025-.45 2.025-1.42v-.04c0-.88-.651-1.423-2.125-1.423h-3.307v2.883h3.407Zm6.106-10.575h6.04c1.487 0 2.656.413 3.4 1.163.592.587.915 1.393.891 2.227v.037c0 1.48-.773 2.303-1.708 2.827 1.505.581 2.433 1.46 2.433 3.22v.043c0 2.394-1.932 3.594-4.868 3.594h-6.184V52.941m5.425 5.298c1.264 0 2.064-.41 2.064-1.386v-.037c0-.86-.67-1.357-1.877-1.357h-2.833v2.77l2.646.01Zm.761 5.277c1.264 0 2.025-.45 2.025-1.42v-.04c0-.88-.651-1.423-2.125-1.423h-3.307v2.883h3.407Zm6.11-10.575h6.04c1.485 0 2.656.413 3.4 1.163.592.586.915 1.393.891 2.227v.037c0 1.48-.773 2.303-1.71 2.827 1.505.581 2.435 1.46 2.435 3.22v.043c0 2.394-1.933 3.594-4.87 3.594h-6.184V52.941m5.425 5.298c1.262 0 2.062-.41 2.062-1.386v-.037c0-.86-.669-1.357-1.877-1.357h-2.825v2.77l2.64.01Zm.761 5.277c1.264 0 2.025-.45 2.025-1.42v-.04c0-.88-.651-1.423-2.125-1.423h-3.301v2.883h3.401Z"/></g></g></svg>